<mxfile host="app.diagrams.net" agent="Mozilla/5.0 (Macintosh; Intel Mac OS X 10_15_7) AppleWebKit/605.1.15 (KHTML, like Gecko) Version/17.5 Safari/605.1.15" version="24.7.16">
  <diagram name="Page-1" id="faFGbYDfc-yJfE558ecA">
    <mxGraphModel dx="1735" dy="1004" grid="1" gridSize="10" guides="1" tooltips="1" connect="1" arrows="1" fold="1" page="1" pageScale="1" pageWidth="827" pageHeight="1169" math="0" shadow="0">
      <root>
        <mxCell id="0" />
        <mxCell id="1" parent="0" />
        <mxCell id="kooUzmV5k-GNHN8CiD2J-25" style="edgeStyle=orthogonalEdgeStyle;rounded=0;orthogonalLoop=1;jettySize=auto;html=1;targetPerimeterSpacing=10;sourcePerimeterSpacing=5;" parent="1" source="8IqVLHPNGlRaz7gmKTyD-8" target="kooUzmV5k-GNHN8CiD2J-8" edge="1">
          <mxGeometry relative="1" as="geometry">
            <mxPoint x="780" y="100" as="sourcePoint" />
          </mxGeometry>
        </mxCell>
        <mxCell id="kooUzmV5k-GNHN8CiD2J-17" style="edgeStyle=orthogonalEdgeStyle;rounded=0;orthogonalLoop=1;jettySize=auto;html=1;targetPerimeterSpacing=10;sourcePerimeterSpacing=10;" parent="1" source="kooUzmV5k-GNHN8CiD2J-4" target="kooUzmV5k-GNHN8CiD2J-9" edge="1">
          <mxGeometry relative="1" as="geometry">
            <Array as="points">
              <mxPoint x="580" y="110" />
              <mxPoint x="480" y="110" />
              <mxPoint x="480" y="60" />
            </Array>
          </mxGeometry>
        </mxCell>
        <mxCell id="kooUzmV5k-GNHN8CiD2J-24" style="edgeStyle=orthogonalEdgeStyle;rounded=0;orthogonalLoop=1;jettySize=auto;html=1;targetPerimeterSpacing=10;sourcePerimeterSpacing=10;" parent="1" source="kooUzmV5k-GNHN8CiD2J-4" target="kooUzmV5k-GNHN8CiD2J-8" edge="1">
          <mxGeometry relative="1" as="geometry">
            <Array as="points">
              <mxPoint x="680" y="190" />
              <mxPoint x="680" y="190" />
            </Array>
            <mxPoint x="710" y="129.9999999999999" as="targetPoint" />
          </mxGeometry>
        </mxCell>
        <mxCell id="kooUzmV5k-GNHN8CiD2J-4" value="Templates Maker&lt;div&gt;(split in chunks,&lt;/div&gt;&lt;div&gt;substitutions, ...)&lt;/div&gt;&lt;div&gt;&amp;lt; text, label &amp;gt;&lt;/div&gt;" style="whiteSpace=wrap;html=1;" parent="1" vertex="1">
          <mxGeometry x="520" y="150" width="120" height="60" as="geometry" />
        </mxCell>
        <mxCell id="kooUzmV5k-GNHN8CiD2J-18" style="edgeStyle=orthogonalEdgeStyle;rounded=0;orthogonalLoop=1;jettySize=auto;html=1;targetPerimeterSpacing=10;sourcePerimeterSpacing=10;" parent="1" source="8IqVLHPNGlRaz7gmKTyD-9" target="kooUzmV5k-GNHN8CiD2J-12" edge="1">
          <mxGeometry relative="1" as="geometry">
            <mxPoint x="650" y="420" as="sourcePoint" />
          </mxGeometry>
        </mxCell>
        <mxCell id="kooUzmV5k-GNHN8CiD2J-28" style="edgeStyle=orthogonalEdgeStyle;rounded=0;orthogonalLoop=1;jettySize=auto;html=1;targetPerimeterSpacing=10;sourcePerimeterSpacing=10;" parent="1" source="kooUzmV5k-GNHN8CiD2J-6" edge="1">
          <mxGeometry relative="1" as="geometry">
            <mxPoint x="1110" y="420" as="targetPoint" />
          </mxGeometry>
        </mxCell>
        <mxCell id="kooUzmV5k-GNHN8CiD2J-6" value="Synthetic&lt;div&gt;Train Data&lt;/div&gt;" style="shape=cylinder3;whiteSpace=wrap;html=1;boundedLbl=1;backgroundOutline=1;size=15;fillColor=#ffe6cc;strokeColor=#d79b00;" parent="1" vertex="1">
          <mxGeometry x="940" y="380" width="80" height="80" as="geometry" />
        </mxCell>
        <mxCell id="kooUzmV5k-GNHN8CiD2J-21" style="edgeStyle=orthogonalEdgeStyle;rounded=0;orthogonalLoop=1;jettySize=auto;html=1;targetPerimeterSpacing=10;sourcePerimeterSpacing=10;" parent="1" source="kooUzmV5k-GNHN8CiD2J-8" target="kooUzmV5k-GNHN8CiD2J-13" edge="1">
          <mxGeometry relative="1" as="geometry" />
        </mxCell>
        <mxCell id="kooUzmV5k-GNHN8CiD2J-26" style="edgeStyle=orthogonalEdgeStyle;rounded=0;orthogonalLoop=1;jettySize=auto;html=1;targetPerimeterSpacing=10;sourcePerimeterSpacing=10;" parent="1" source="kooUzmV5k-GNHN8CiD2J-8" target="kooUzmV5k-GNHN8CiD2J-14" edge="1">
          <mxGeometry relative="1" as="geometry">
            <Array as="points">
              <mxPoint x="880" y="190" />
              <mxPoint x="880" y="280" />
            </Array>
          </mxGeometry>
        </mxCell>
        <mxCell id="kooUzmV5k-GNHN8CiD2J-34" style="edgeStyle=orthogonalEdgeStyle;rounded=0;orthogonalLoop=1;jettySize=auto;html=1;targetPerimeterSpacing=10;sourcePerimeterSpacing=10;" parent="1" source="kooUzmV5k-GNHN8CiD2J-8" target="kooUzmV5k-GNHN8CiD2J-33" edge="1">
          <mxGeometry relative="1" as="geometry">
            <Array as="points">
              <mxPoint x="880" y="170" />
              <mxPoint x="880" y="170" />
            </Array>
          </mxGeometry>
        </mxCell>
        <mxCell id="kooUzmV5k-GNHN8CiD2J-8" value="nlp-synt-data&lt;div&gt;(Data Generator)&lt;/div&gt;" style="whiteSpace=wrap;html=1;" parent="1" vertex="1">
          <mxGeometry x="720" y="150" width="120" height="60" as="geometry" />
        </mxCell>
        <mxCell id="kooUzmV5k-GNHN8CiD2J-23" style="edgeStyle=orthogonalEdgeStyle;rounded=0;orthogonalLoop=1;jettySize=auto;html=1;targetPerimeterSpacing=10;sourcePerimeterSpacing=10;" parent="1" source="kooUzmV5k-GNHN8CiD2J-9" target="kooUzmV5k-GNHN8CiD2J-8" edge="1">
          <mxGeometry relative="1" as="geometry">
            <Array as="points">
              <mxPoint x="680" y="60" />
              <mxPoint x="680" y="170" />
            </Array>
            <mxPoint x="710" y="109.99999999999989" as="targetPoint" />
          </mxGeometry>
        </mxCell>
        <mxCell id="kooUzmV5k-GNHN8CiD2J-9" value="Chunks Merger&lt;div&gt;(length control)&lt;/div&gt;" style="whiteSpace=wrap;html=1;" parent="1" vertex="1">
          <mxGeometry x="520" y="30" width="120" height="60" as="geometry" />
        </mxCell>
        <mxCell id="kooUzmV5k-GNHN8CiD2J-19" style="edgeStyle=orthogonalEdgeStyle;rounded=0;orthogonalLoop=1;jettySize=auto;html=1;targetPerimeterSpacing=10;sourcePerimeterSpacing=10;" parent="1" source="kooUzmV5k-GNHN8CiD2J-12" target="kooUzmV5k-GNHN8CiD2J-14" edge="1">
          <mxGeometry relative="1" as="geometry">
            <Array as="points">
              <mxPoint x="880" y="420" />
              <mxPoint x="880" y="320" />
            </Array>
          </mxGeometry>
        </mxCell>
        <mxCell id="kooUzmV5k-GNHN8CiD2J-30" style="edgeStyle=orthogonalEdgeStyle;rounded=0;orthogonalLoop=1;jettySize=auto;html=1;targetPerimeterSpacing=10;sourcePerimeterSpacing=10;" parent="1" source="kooUzmV5k-GNHN8CiD2J-12" target="kooUzmV5k-GNHN8CiD2J-13" edge="1">
          <mxGeometry relative="1" as="geometry" />
        </mxCell>
        <mxCell id="kooUzmV5k-GNHN8CiD2J-12" value="nlp-synt-data&lt;div&gt;(Prompt Generator)&lt;/div&gt;" style="whiteSpace=wrap;html=1;" parent="1" vertex="1">
          <mxGeometry x="720" y="390" width="120" height="60" as="geometry" />
        </mxCell>
        <mxCell id="kooUzmV5k-GNHN8CiD2J-20" style="edgeStyle=orthogonalEdgeStyle;rounded=0;orthogonalLoop=1;jettySize=auto;html=1;targetPerimeterSpacing=10;sourcePerimeterSpacing=10;" parent="1" source="kooUzmV5k-GNHN8CiD2J-13" target="kooUzmV5k-GNHN8CiD2J-14" edge="1">
          <mxGeometry relative="1" as="geometry">
            <Array as="points">
              <mxPoint x="920" y="300" />
              <mxPoint x="920" y="300" />
            </Array>
          </mxGeometry>
        </mxCell>
        <mxCell id="kooUzmV5k-GNHN8CiD2J-13" value="Response Maker&lt;div&gt;(explanation, classification, ...)&lt;/div&gt;" style="whiteSpace=wrap;html=1;" parent="1" vertex="1">
          <mxGeometry x="720" y="270" width="120" height="60" as="geometry" />
        </mxCell>
        <mxCell id="kooUzmV5k-GNHN8CiD2J-27" style="edgeStyle=orthogonalEdgeStyle;rounded=0;orthogonalLoop=1;jettySize=auto;html=1;targetPerimeterSpacing=10;sourcePerimeterSpacing=10;" parent="1" source="kooUzmV5k-GNHN8CiD2J-14" target="kooUzmV5k-GNHN8CiD2J-6" edge="1">
          <mxGeometry relative="1" as="geometry" />
        </mxCell>
        <mxCell id="kooUzmV5k-GNHN8CiD2J-14" value="Chat Maker" style="whiteSpace=wrap;html=1;" parent="1" vertex="1">
          <mxGeometry x="920" y="270" width="120" height="60" as="geometry" />
        </mxCell>
        <mxCell id="kooUzmV5k-GNHN8CiD2J-31" style="edgeStyle=orthogonalEdgeStyle;rounded=0;orthogonalLoop=1;jettySize=auto;html=1;targetPerimeterSpacing=10;sourcePerimeterSpacing=10;" parent="1" source="kooUzmV5k-GNHN8CiD2J-29" target="kooUzmV5k-GNHN8CiD2J-4" edge="1">
          <mxGeometry relative="1" as="geometry" />
        </mxCell>
        <mxCell id="kooUzmV5k-GNHN8CiD2J-29" value="Train-Test&lt;div&gt;Data Split&lt;/div&gt;" style="whiteSpace=wrap;html=1;" parent="1" vertex="1">
          <mxGeometry x="320" y="150" width="120" height="60" as="geometry" />
        </mxCell>
        <mxCell id="kooUzmV5k-GNHN8CiD2J-33" value="Synthetic&lt;div&gt;Test Data&lt;/div&gt;" style="shape=cylinder3;whiteSpace=wrap;html=1;boundedLbl=1;backgroundOutline=1;size=15;fillColor=#ffe6cc;strokeColor=#d79b00;" parent="1" vertex="1">
          <mxGeometry x="940" y="140" width="80" height="80" as="geometry" />
        </mxCell>
        <mxCell id="8IqVLHPNGlRaz7gmKTyD-5" style="edgeStyle=orthogonalEdgeStyle;rounded=0;orthogonalLoop=1;jettySize=auto;html=1;targetPerimeterSpacing=10;sourcePerimeterSpacing=10;" parent="1" source="8IqVLHPNGlRaz7gmKTyD-1" target="8IqVLHPNGlRaz7gmKTyD-2" edge="1">
          <mxGeometry relative="1" as="geometry">
            <Array as="points">
              <mxPoint x="260" y="70" />
              <mxPoint x="260" y="300" />
            </Array>
          </mxGeometry>
        </mxCell>
        <mxCell id="8IqVLHPNGlRaz7gmKTyD-6" style="edgeStyle=orthogonalEdgeStyle;rounded=0;orthogonalLoop=1;jettySize=auto;html=1;targetPerimeterSpacing=10;sourcePerimeterSpacing=10;" parent="1" source="8IqVLHPNGlRaz7gmKTyD-1" target="kooUzmV5k-GNHN8CiD2J-29" edge="1">
          <mxGeometry relative="1" as="geometry">
            <Array as="points">
              <mxPoint x="280" y="90" />
              <mxPoint x="280" y="180" />
            </Array>
          </mxGeometry>
        </mxCell>
        <mxCell id="8IqVLHPNGlRaz7gmKTyD-1" value="Real Data" style="shape=cylinder3;whiteSpace=wrap;html=1;boundedLbl=1;backgroundOutline=1;size=15;" parent="1" vertex="1">
          <mxGeometry x="340" y="40" width="80" height="80" as="geometry" />
        </mxCell>
        <mxCell id="8IqVLHPNGlRaz7gmKTyD-7" style="edgeStyle=orthogonalEdgeStyle;rounded=0;orthogonalLoop=1;jettySize=auto;html=1;targetPerimeterSpacing=10;sourcePerimeterSpacing=10;" parent="1" source="8IqVLHPNGlRaz7gmKTyD-2" target="8IqVLHPNGlRaz7gmKTyD-3" edge="1">
          <mxGeometry relative="1" as="geometry" />
        </mxCell>
        <mxCell id="8IqVLHPNGlRaz7gmKTyD-2" value="NOME&lt;div&gt;(annotation tool)&lt;/div&gt;" style="whiteSpace=wrap;html=1;" parent="1" vertex="1">
          <mxGeometry x="320" y="270" width="120" height="60" as="geometry" />
        </mxCell>
        <mxCell id="8IqVLHPNGlRaz7gmKTyD-3" value="Real Data Annotated" style="shape=cylinder3;whiteSpace=wrap;html=1;boundedLbl=1;backgroundOutline=1;size=15;fillColor=#dae8fc;strokeColor=#6c8ebf;" parent="1" vertex="1">
          <mxGeometry x="540" y="260" width="80" height="80" as="geometry" />
        </mxCell>
        <mxCell id="8IqVLHPNGlRaz7gmKTyD-8" value="Substitutions Data&lt;div&gt;(names, verbs...)&lt;/div&gt;&lt;div&gt;&amp;lt; text, label &amp;gt;&lt;/div&gt;" style="shape=document;whiteSpace=wrap;html=1;boundedLbl=1;" parent="1" vertex="1">
          <mxGeometry x="720" y="20" width="120" height="80" as="geometry" />
        </mxCell>
        <mxCell id="8IqVLHPNGlRaz7gmKTyD-9" value="Promprs&lt;div&gt;&amp;lt; prompt, label &amp;gt;&lt;/div&gt;" style="shape=document;whiteSpace=wrap;html=1;boundedLbl=1;" parent="1" vertex="1">
          <mxGeometry x="520" y="380" width="120" height="80" as="geometry" />
        </mxCell>
        <mxCell id="VBUAaF2JNmheHbToEvTF-12" value="Hugging Face" style="shape=image;verticalLabelPosition=bottom;labelBackgroundColor=default;verticalAlign=top;aspect=fixed;imageAspect=0;image=data:image/svg+xml,PHN2ZyB4bWxucz0iaHR0cDovL3d3dy53My5vcmcvMjAwMC9zdmciIHZpZXdCb3g9IjI0Ljk3NDAwMDAwMDAwMDAzNiAzMi4xNDQ5OTk5OTk5OTk5NSAyMDYuOTQ1OTk5OTk5OTk5OTcgMTkxLjMwOTk5OTk5OTk5OTkiIHdpZHRoPSIyNTAwIiBoZWlnaHQ9IjI1MDAiIGZpbGw9Im5vbmUiPjxwYXRoIGZpbGw9IiNmZmYiIGQ9Ik0yMzAuNzIxIDE3Mi43YTE4Ljk3IDE4Ljk3IDAgMCAwLTIuNTc1LTUuNjkyYy4yNS0uOTE3LjQ0MS0xLjg0OS41NjgtMi43OTEuODI5LTUuOTc2LTEuMjQzLTExLjQ0Ny01LjE0Ny0xNS42OC0yLjExNS0yLjMxMi00LjM4Mi0zLjgzOS02Ljc4My00Ljc3NmE5MC42MDIgOTAuNjAyIDAgMCAwIDIuMzc3LTIwLjU2OGMwLTMuMTYzLS4xNzktNi4yNjEtLjQ3OS05LjMxM2ExMDUuODggMTA1Ljg4IDAgMCAwLS41NjctNC41NiA5MC45ODUgOTAuOTg1IDAgMCAwLTMuMDUxLTEzLjIxIDkxLjIyIDkxLjIyIDAgMCAwLTMuMDU0LTguMzc0IDkxLjkzIDkxLjkzIDAgMCAwLTYuMDQxLTExLjc1NCA4MS4zNjkgODEuMzY5IDAgMCAwLTQuOTA3LTcuMjYyIDY4Ljk3OSA2OC45NzkgMCAwIDAtMi43MDQtMy40NDYgOTAuNTM1IDkwLjUzNSAwIDAgMC05LjAzMy05LjQ4NiA2OS45MzggNjkuOTM4IDAgMCAwLTMuMzE1LTIuODYyIDgxLjc2IDgxLjc2IDAgMCAwLTMuNDI0LTIuNzA0IDk2LjA1NiA5Ni4wNTYgMCAwIDAtNy4yNjItNC45MDdjLTEzLjc4MS04LjM3LTI5Ljk0Mi0xMy4xNy00Ny4yMTUtMTMuMTctNTAuMjkyIDAtOTEuMDUyIDQwLjc2Mi05MS4wNTIgOTEuMDUxLS4wMDIgNy4wMTIuODEgMTQgMi40MiAyMC44MjQtMi4xNi45MzgtNC4yMyAyLjQtNi4xNSA0LjUxNS0zLjkwMyA0LjIzMS01Ljk3NiA5LjY4Mi01LjE0NyAxNS42NTguMTI2Ljk0OS4zMTUgMS44ODkuNTY3IDIuODEzYTE5LjAwNiAxOS4wMDYgMCAwIDAtMi41NzMgNS42OTRjLTEuMiA0LjU2MS0uODA1IDguNjc0LjcyIDEyLjI3OC0xLjY1OCA0LjcxLTEuMjQ0IDkuNzI2LjkxNSAxNC4wODcgMS41NyAzLjE4NSAzLjgxNyA1LjY0OSA2LjU4NyA3Ljg1MSAzLjI5MyAyLjYxOCA3LjQxNSA0Ljg0MiAxMi4zODcgNi45NzYgNS45MzIgMi41MyAxMy4xNzMgNC45MDcgMTYuNDY2IDUuNzc5IDguNTA2IDIuMjAyIDE2LjY2MiAzLjU5OCAyNC45MjggMy42NjYgMTEuNzc3LjEwOSAyMS45MTktMi42NiAyOS4xOC05Ljc0N2E4OC4wMiA4OC4wMiAwIDAgMCAxMC43NTIuNjU0IDkzLjc1MiA5My43NTIgMCAwIDAgMTEuMzU4LS43MTVjNy4yNDQgNy4xMzIgMTcuNDI1IDkuOTI2IDI5LjI0NSA5LjgxNCA4LjI2NS0uMDY2IDE2LjQyMS0xLjQ2MiAyNC45MDUtMy42NjcgMy4zMTUtLjg3MiAxMC41NTMtMy4yNDkgMTYuNDg4LTUuNzc5IDQuOTcyLTIuMTM3IDkuMDk0LTQuMzYxIDEyLjQwOS02Ljk3NSAyLjc0OS0yLjIwMyA0Ljk5NC00LjY2NiA2LjU2NS03Ljg1MSAyLjE4MS00LjM2MiAyLjU3My05LjM3OC45MzgtMTQuMDg4IDEuNTEtMy42MDQgMS45MDMtNy43MjYuNzA0LTEyLjI4M3ptLTguNDQgMTEuOTczYzEuNjcxIDMuMTcxIDEuNzc4IDYuNzU0LjMwNCAxMC4wOTEtMi4yMzYgNS4wNTctNy43OSA5LjA0MS0xOC41NzcgMTMuMzE4LTYuNzA4IDIuNjYtMTIuODUgNC4zNjEtMTIuOTA0IDQuMzc2LTguODcyIDIuMzAxLTE2Ljg5NiAzLjQ3LTIzLjg0MiAzLjQ3LTExLjUwMiAwLTIwLjA2MS0zLjE3NC0yNS40ODktOS40NDJhODUuNDYxIDg1LjQ2MSAwIDAgMS0yNy43NDcuMTU4Yy01LjQzNSA2LjE2NC0xMy45NDUgOS4yODQtMjUuMzUgOS4yODQtNi45NDcgMC0xNC45Ny0xLjE2OS0yMy44NDMtMy40Ny0uMDU0LS4wMTUtNi4xOTQtMS43MTYtMTIuOTA0LTQuMzc2LTEwLjc4Ni00LjI3Ny0xNi4zNDItOC4yNTgtMTguNTc3LTEzLjMxOC0xLjQ3NC0zLjMzNy0xLjM2Ny02LjkyLjMwNC0xMC4wOTEuMTU0LS4yOTUuMzItLjU4Mi40OTctLjg2YTEyLjgwMyAxMi44MDMgMCAwIDEtMS43MjgtMTAuMzQxYy42NjQtMi41MjMgMi4wMzUtNC42MjEgMy44OTctNi4xMjhhMTIuNzUgMTIuNzUgMCAwIDEtMS43My00LjgyMmMtLjUzNi0zLjcxNC42OTctNy40MjIgMy40Ny0xMC40NDYgMi4xNi0yLjM1MyA1LjIxMy0zLjY0OCA4LjU5My0zLjY0OGguMDlhODQuNDUgODQuNDUgMCAwIDEtMy44MzItMjUuMjM1YzAtNDYuNjcxIDM3LjgzNi04NC41MSA4NC41MTQtODQuNTEgNDYuNjc3IDAgODQuNTEzIDM3LjgzNSA4NC41MTMgODQuNTFhODQuMzk4IDg0LjM5OCAwIDAgMS0zLjg1OSAyNS4yOTljLjQwOC0uMDQuODA4LS4wNiAxLjIwMS0uMDYxIDMuMzggMCA2LjQzNCAxLjI5NSA4LjU5MiAzLjY0OCAyLjc3MyAzLjAyMSA0LjAwNyA2LjczMiAzLjQ3IDEwLjQ0NmExMi43NTcgMTIuNzU3IDAgMCAxLTEuNzI5IDQuODIyYzEuODYyIDEuNTA3IDMuMjM0IDMuNjA1IDMuODk3IDYuMTI4YTEyLjgwMyAxMi44MDMgMCAwIDEtMS43MjggMTAuMzQxYy4xNzcuMjc1LjM0NS41NjIuNDk3Ljg1N3oiLz48cGF0aCBmaWxsPSIjZmY5ZDAwIiBkPSJNMjIxLjc4NCAxODMuODE2YTEyLjc5OCAxMi43OTggMCAwIDAgMS43MjgtMTAuMzQxYy0uNjY0LTIuNTIzLTIuMDM2LTQuNjIxLTMuODk3LTYuMTI4YTEyLjc0IDEyLjc0IDAgMCAwIDEuNzI5LTQuODIyYy41MzctMy43MTQtLjY5Ni03LjQyMi0zLjQ3LTEwLjQ0Ni0yLjE1OC0yLjM1My01LjIxMi0zLjY0OC04LjU5Mi0zLjY0OC0uMzkzIDAtLjc5My4wMjEtMS4yMDEuMDYxYTg0LjQxNSA4NC40MTUgMCAwIDAgMy44NTItMjUuMjk3YzAtNDYuNjcyLTM3LjgzNi04NC41MS04NC41MDktODQuNTEtNDYuNjc0IDAtODQuNTE0IDM3LjgzNC04NC41MTQgODQuNTFhODQuNDYgODQuNDYgMCAwIDAgMy44MzIgMjUuMjM1aC0uMDljLTMuMzggMC02LjQzMyAxLjI5NC04LjU5MiAzLjY0Ny0yLjc3MyAzLjAyMS00LjAwNyA2LjczMy0zLjQ3IDEwLjQ0NmExMi43NjIgMTIuNzYyIDAgMCAwIDEuNzMgNC44MjNjLTEuODYyIDEuNTA2LTMuMjM0IDMuNjA0LTMuODk4IDYuMTI3YTEyLjgwOCAxMi44MDggMCAwIDAgMS43MyAxMC4zNDNjLS4xNzguMjc4LS4zNDIuNTY1LS40OTcuODYtMS42NyAzLjE3MS0xLjc3OCA2Ljc1NC0uMzAzIDEwLjA5MSAyLjIzNiA1LjA1NyA3Ljc5IDkuMDQxIDE4LjU3NyAxMy4zMTggNi43MDcgMi42NiAxMi44NSA0LjM2MSAxMi45MDQgNC4zNzYgOC44NzIgMi4zMDEgMTYuODk2IDMuNDcgMjMuODQyIDMuNDcgMTEuNDA2IDAgMTkuOTE2LTMuMTIgMjUuMzUxLTkuMjg0YTg1LjQ5IDg1LjQ5IDAgMCAwIDI3Ljc0Ny0uMTU4YzUuNDI4IDYuMjY4IDEzLjk4NyA5LjQ0MiAyNS40ODkgOS40NDIgNi45NDYgMCAxNC45Ny0xLjE2OSAyMy44NDEtMy40Ny4wNTUtLjAxNSA2LjE5NS0xLjcxNiAxMi45MDUtNC4zNzYgMTAuNzg3LTQuMjc3IDE2LjM0Mi04LjI2MSAxOC41NzctMTMuMzE4IDEuNDc0LTMuMzM3IDEuMzY3LTYuOTItLjMwNC0xMC4wOTEtLjE1Mi0uMjk3LS4zMi0uNTg1LS40OTctLjg2em0tMTExLjY0NyAxMy4xODFhMzQuNjU5IDM0LjY1OSAwIDAgMS0xLjUwMiAyLjM5NGMtMS40MDUgMi4wNTctMy4yNTMgMy42MjktNS4zOTggNC43OTctNC4xIDIuMjM2LTkuMjkgMy4wMTctMTQuNTYyIDMuMDE3LTguMzI5IDAtMTYuODY3LTEuOTQ5LTIxLjY1Mi0zLjE5LS4yMzYtLjA2MS0yOS4zMzQtOC4yOC0yNS42NS0xNS4yNzYuNjItMS4xNzcgMS42NC0xLjY0NyAyLjkyNS0xLjY0NyA1LjE4NyAwIDE0LjYzMiA3LjcyNCAxOC42OSA3LjcyNC45MDggMCAxLjU0OC0uMzg2IDEuODA5LTEuMzI4IDEuNzMtNi4yMDQtMjYuMjkzLTguODEyLTIzLjkzMy0xNy43OTYuNDE2LTEuNTkgMS41NDYtMi4yMzYgMy4xMzQtMi4yMzYgNi44NTgtLjAwMSAyMi4yNSAxMi4wNiAyNS40NjkgMTIuMDYuMjQ3IDAgLjQyNC0uMDczLjUyLS4yMjUuMDE0LS4wMjMuMDI4LS4wNDUuMDQxLS4wNjkgMS41MTEtMi40OTUuNjQ0LTQuMzA5LTkuNzA3LTEwLjY0OWwtLjk5NC0uNjA1Yy0xMS4zOTEtNi44OTQtMTkuMzg2LTExLjA0My0xNC44NC0xNS45OTMuNTI0LS41NzEgMS4yNjYtLjgyNCAyLjE2Ny0uODI0IDEuMDY4IDAgMi4zNi4zNTcgMy43ODUuOTU3IDYuMDE2IDIuNTM3IDE0LjM1NCA5LjQ1NiAxNy44MzcgMTIuNDczYTE0NiAxNDYgMCAwIDEgMS42MzMgMS40NDFzNC40MSA0LjU4NiA3LjA3NiA0LjU4NmMuNjE0IDAgMS4xMzUtLjI0MiAxLjQ4OC0uODQgMS44OTEtMy4xODgtMTcuNTYzLTE3LjkzLTE4LjY2LTI0LjAxMy0uNzQ0LTQuMTIxLjUyMi02LjIwOSAyLjg2Mi02LjIwOSAxLjExMyAwIDIuNDcuNDc0IDMuOTcgMS40MjUgNC42NSAyLjk1MSAxMy42MjggMTguMzc5IDE2LjkxNSAyNC4zODEgMS4xMDIgMi4wMTEgMi45ODMgMi44NjEgNC42NzggMi44NjEgMy4zNjMgMCA1Ljk5Mi0zLjM0My4zMDgtNy41OTEtOC41NDMtNi4zOTItNS41NDUtMTYuODQtMS40NjgtMTcuNDgzLjE3NC0uMDI4LjM1LS4wNDIuNTI1LS4wNDIgMy43MDggMCA1LjM0MyA2LjM4OSA1LjM0MyA2LjM4OXM0Ljc5NCAxMi4wMzggMTMuMDI5IDIwLjI2N2M3LjQ3MiA3LjQ2OSA4LjUxNiAxMy41OTggNC4xNjIgMjEuMjQ0em0yNi42MjkgMS40MWwtLjQyNy4wNTEtLjcyOC4wODNjLS4zODMuMDQtLjc2Ny4wNzgtMS4xNTIuMTEzbC0uMzc1LjAzNC0uMzQzLjAyOS0uNDg2LjAzOS0uNTM3LjAzOS0uNTM2LjAzNS0uMTE5LjAwOGMtLjE0LjAwOC0uMjguMDE3LS40MjIuMDI0bC0uMTc5LjAxYy0uMTY2LjAwOS0uMzMyLjAxNy0uNS4wMjRsLS41ODEuMDI1LS41MjcuMDE4LS4zNTIuMDFoLS4xNzljLS4xMSAwLS4yMTkuMDA2LS4zMjkuMDA3aC0uMTc0Yy0uMTEgMC0uMjE5IDAtLjMyOS4wMDVsLS40NDguMDA2aC0uNjI1Yy0uNDkxIDAtLjk4MS0uMDA1LTEuNDY5LS4wMTVsLS4zOTYtLjAwOWMtLjExMyAwLS4yMjYtLjAwNS0uMzM3LS4wMDlsLS40Mi0uMDEyLS41MjEtLjAyLS40Ny0uMDIxLS4xMjEtLjAwNS0uNDQ3LS4wMjNjLS4xMjUtLjAwNy0uMjQ4LS4wMTMtLjM3Mi0uMDIybC0uMjg5LS4wMTdhNzkuNjQgNzkuNjQgMCAwIDEtMS4wODktLjA3NmwtLjM4LS4wMzFjLS4xNi0uMDEyLS4zMi0uMDI3LS40NzktLjA0MS0uMTg3LS4wMTYtLjM3NC0uMDM0LS41NjEtLjA1MmE1OS42ODcgNTkuNjg3IDAgMCAxLS45MzktLjA5NWgtLjAxNWM0LjU3LTEwLjE5NSAyLjI1OS0xOS43MTctNi45NzYtMjguOTQ0LTYuMDU3LTYuMDQ5LTEwLjA4Ni0xNC45ODEtMTAuOTIyLTE2Ljk0Mi0xLjY5Mi01LjgwNS02LjE3LTEyLjI1OC0xMy42MDctMTIuMjU4LS42MjkgMC0xLjI1Ny4wNS0xLjg3OC4xNDgtMy4yNTguNTEzLTYuMTA2IDIuMzg4LTguMTM4IDUuMjEtMi4xOTYtMi43MzEtNC4zMy00LjkwMi02LjI2LTYuMTI4LTIuOTEtMS44NDUtNS44MTQtMi43ODEtOC42NDMtMi43ODEtMy41MzEgMC02LjY4NyAxLjQ1LTguODg3IDQuMDhsLS4wNTYuMDY3Yy0uMDQyLS4xNzMtLjA4Mi0uMzQ2LS4xMjMtLjUybC0uMDA1LS4wMjNhNzMuNjg1IDczLjY4NSAwIDAgMS0xLjA1NC01LjQxMmMwLS4wMTIgMC0uMDI0LS4wMDYtLjAzNi0uMDIyLS4xMzctLjA0Mi0uMjc1LS4wNjMtLjQxMi0uMDYyLS40MDYtLjEyLS44MTMtLjE3My0xLjIyLS4wMjQtLjE4NS0uMDUtLjM3LS4wNzMtLjU1NWwtLjA2OC0uNTU1Yy0uMDIyLS4xODUtLjA0LS4zNTMtLjA2LS41MjlsLS4wMDYtLjA0NGMtLjA4LS43Mi0uMTUtMS40NC0uMjEtMi4xNjJsLS4wMjItLjI3Ny0uMDM1LS40NzJjLS4wMS0uMTI5LS4wMi0uMjU5LS4wMjctLjM4OSAwLS4wMzEtLjAwNS0uMDYxLS4wMDYtLjA5YTUyLjQ3NiA1Mi40NzYgMCAwIDEtLjA2NS0xLjA4OGMtLjAxLS4xODktLjAyLS4zNzctLjAyOC0uNTY3bC0uMDItLjQ5Ni0uMDA1LS4xNS0uMDE2LS40NTctLjAxLS4zODljMC0uMTU1LS4wMDgtLjMxLS4wMS0uNDY1LS4wMDMtLjE1NS0uMDA3LS4zMjUtLjAwOC0uNDg5LS4wMDItLjE2NCAwLS4zMjYtLjAwNS0uNDg5LS4wMDQtLjE2NCAwLS4zMjcgMC0uNDkgMC00MS44NTMgMzMuOTMtNzUuNzg0IDc1Ljc4OC03NS43ODQgNDEuODU2IDAgNzUuNzg2IDMzLjkzIDc1Ljc4NiA3NS43ODR2Ljk3OWMwIC4xNjMtLjAwNS4zMjctLjAwOC40ODkgMCAuMTM1LS4wMDYuMjY4LS4wMS40MDUgMCAuMTItLjAwNS4yNDEtLjAwOS4zNTcgMCAuMTUzLS4wMDkuMzA2LS4wMTQuNDU5di4wMTJsLS4wMjEuNTMxYy0uMDA3LjE1NS0uMDEzLjMxMS0uMDIxLjQ2NmwtLjAwNS4xMS0uMDI3LjQ5NmE4MC43MjMgODAuNzIzIDAgMCAxLS4yNDEgMy4xODR2LjAxM2MtLjAxNy4xNzQtLjAzNC4zNDgtLjA1My41MjJsLS4wNDUuNDExLS4wODkuODA0LS4wNTEuNDA3LS4wNjMuNDc5Yy0uMDIzLjE3NC0uMDQ2LjM0OS0uMDcyLjUyMi0uMDI2LjE5NS0uMDU1LjM4OS0uMDg0LjU4M2wtLjA2OS40NTktLjA4Mi41MmMtLjAyOC4xNzMtLjA1OC4zNDUtLjA5LjUxNy0uMDMzLjE3My0uMDU5LjM0NS0uMDg5LjUxNy0uMDYuMzQ0LS4xMjMuNjg4LS4xODkgMS4wMzEtLjEwMS41MTMtLjIwNCAxLjAyNS0uMzEgMS41MzdsLS4xMS41MDdjLS4wMzYuMTY5LS4wNzUuMzM5LS4xMTMuNTA4LTIuMTMzLTIuMDczLTQuOTU4LTMuMjAyLTguMDczLTMuMjAyLTIuODI3IDAtNS43MzQuOTM1LTguNjQzIDIuNzgtMS45MyAxLjIyNi00LjA2MyAzLjM5OC02LjI2IDYuMTI4LTIuMDM1LTIuODIyLTQuODgzLTQuNjk3LTguMTM5LTUuMjFhMTIuMDUgMTIuMDUgMCAwIDAtMS44NzgtLjE0OGMtNy40MzkgMC0xMS45MTQgNi40NTMtMTMuNjA3IDEyLjI1OC0uODQgMS45NjEtNC44NyAxMC44OTMtMTAuOTMyIDE2Ljk1MS05LjIyOSA5LjE5OC0xMS41NTcgMTguNjc3LTcuMDU5IDI4Ljgzem03OC4yNDEtMjAuNDA5bC0uMDMuMDg5YTUuNDE2IDUuNDE2IDAgMCAxLS4yNjMuNTg3Yy0uMDc1LjE0LS4xNTYuMjc2LS4yNDQuNDA4LS4xNjcuMjQ5LS4zNS40ODctLjU0OS43MTEtLjA0Ni4wNTItLjA5LjEwNC0uMTQyLjE1NWE3Ljg1MyA3Ljg1MyAwIDAgMS0uMjIuMjI3Yy0xLjM0NiAxLjMzNC0zLjM5OCAyLjUwNC01LjcxOCAzLjU3Ny0uMjYzLjExOS0uNTMuMjM4LS43OTkuMzU4bC0uMjY4LjExOWMtLjE3OS4wNzktLjM1OC4xNTctLjU0Ni4yMzQtLjE3OS4wNzgtLjM2NS4xNTYtLjU1MS4yMzJsLS41NTguMjNjLTEuMzA1LjUzNy0yLjY0MiAxLjA0OS0zLjk0NiAxLjU1NGwtLjU1OC4yMTctLjU1MS4yMTZjLS4zNjcuMTQzLS43MjkuMjg2LTEuMDg1LjQyOWwtLjUzMS4yMTQtLjUyMi4yMTMtLjI1Ni4xMDhjLS4xNzEuMDcxLS4zMzguMTQyLS41MDUuMjEzLTMuODM3IDEuNjQ3LTYuNTk4IDMuMzIyLTYuMDE4IDUuNC4wMTYuMDU5LjAzNC4xMTUuMDU0LjE3LjA1Mi4xNTQuMTIzLjI5OS4yMTIuNDM2LjA1Mi4wODEuMTEyLjE1OC4xNzkuMjI4LjY4Mi43MDkgMS45MjMuNTk3IDMuNDg4LjAzNC4yMi0uMDgxLjQzOS0uMTY1LjY1Ni0uMjUzbC4xMzYtLjA1NmMuMzU4LS4xNTIuNzM3LS4zMjIgMS4xMjQtLjUwNi4wOTctLjA0Ni4xOTUtLjA5LjI5My0uMTQxIDEuOTE0LS45MzYgNC4wODMtMi4xOTYgNi4yMzUtMy4zNDNhNTUuODEyIDU1LjgxMiAwIDAgMSAyLjYxOC0xLjMyNWMyLjAzOC0uOTU5IDMuOTU0LTEuNjM5IDUuNDk0LTEuNjM5LjcyMyAwIDEuMzYxLjE0OCAxLjg5My40ODhsLjA4OS4wNTljLjMzNC4yMzUuNjE0LjUzNy44MjMuODg3LjA0MS4wNjcuMDgxLjEzOC4xMi4yMTEuNzYxIDEuNDQ1LjEyNCAyLjk0MS0xLjM2NyA0LjQwOC0xLjQzMSAxLjQwOS0zLjY1NyAyLjc5LTYuMTg3IDQuMDY4LS4xODguMDk1LS4zNzYuMTktLjU2Ny4yODMtNy41MyAzLjY5OC0xNy4zOTEgNi40ODMtMTcuNTI4IDYuNTE4LTIuNjI4LjY4MS02LjM4NiAxLjU3NS0xMC42MiAyLjI0NGwtLjYyNi4wOTgtLjEwMy4wMTVjLS40NzQuMDcyLS45NDkuMTM5LTEuNDI1LjIwMS0uNDgzLjA2NS0uOTcxLjEyNC0xLjQ2Mi4xNzlsLS4wOS4wMWE2OC41NiA2OC41NiAwIDAgMS01LjM1OC40MDZoLS4wMjZjLS42NDguMDIzLTEuMjk1LjAzNS0xLjk0My4wMzVoLS43NDdhNDYuMzggNDYuMzggMCAwIDEtMi45NTktLjEzNGMtLjAyMyAwLS4wNDggMC0uMDcxLS4wMDZhMzkuNjY2IDM5LjY2NiAwIDAgMS0yLjE0OS0uMjMxIDI0LjY0MSAyNC42NDEgMCAwIDEtLjcxNS0uMTA3IDU3LjY1MyA1Ny42NTMgMCAwIDEtLjcyNS0uMTIxbC0uMzI5LS4wNjItLjAyNS0uMDA1YTI2LjEwNyAyNi4xMDcgMCAwIDEtMS4wMzYtLjIxOWMtLjItLjA0NS0uMzk5LS4wODktLjU5Ni0uMTQzbC0uMTE5LS4wM2MtLjA5OC0uMDI0LS4xOTMtLjA1LS4yOS0uMDc2bC0uMDUzLS4wMTQtLjMwOC0uMDljLS4xMTItLjAzMS0uMjI0LS4wNjUtLjMzNi0uMDk4bC0uMDM5LS4wMTEtLjI5MS0uMDg5Yy0uMTEtLjAzNC0uMjItLjA3LS4zMjktLjEwNmwtLjI2OC0uMDg5LS4xOTctLjA2OWMtLjE5LS4wNjctLjM3OS0uMTM2LS41NjYtLjIwOGwtLjE3OC0uMDctLjE0Ny0uMDU4YTIzLjI0MyAyMy4yNDMgMCAwIDEtLjg0NS0uMzU4bC0uMTg1LS4wOS0uMDMxLS4wMTRjLS4wNjYtLjAzMS0uMTMxLS4wNjItLjE5Ny0uMDg5YTE3LjE0MiAxNy4xNDIgMCAwIDEtLjM4NC0uMTkxbC0uMDM5LS4wMTktLjE4NC0uMDk3YTE1Ljk0MyAxNS45NDMgMCAwIDEtLjk2MS0uNTQ2bC0uMTcyLS4xMDZhOC41NDcgOC41NDcgMCAwIDEtLjI1Ni0uMTY0bC0uMjI0LS4xNDgtLjI0MS0uMTY2LS4xNDQtLjEwM2MtLjE1Mi0uMTA4LS4zMDEtLjIyLS40NDctLjMzNWwtLjIzMy0uMTc5YTE1LjE3MyAxNS4xNzMgMCAwIDEtLjI3Ni0uMjI4Yy0uMDc3LS4wNjMtLjE1Mi0uMTI5LS4yMjctLjE5NWwtLjAwNi0uMDA1Yy0uMDgxLS4wNzEtLjE2LS4xNDItLjIzOS0uMjE1YTExLjg1IDExLjg1IDAgMCAxLS4yMzItLjIxNmwtLjAwOS0uMDA5YTguNTY5IDguNTY5IDAgMCAxLS4yMzUtLjIzMmMtLjA3Ny0uMDc4LS4xNTYtLjE1Ni0uMjMxLS4yMzYtLjA3NS0uMDc5LS4xNTItLjE2LS4yMjYtLjI0My0uMDc0LS4wODItLjE0Mi0uMTU3LS4yMTItLjIzOGwtLjAyMy0uMDI3YTkuMzQgOS4zNCAwIDAgMS0uMjAxLS4yMzggMTIuNDQyIDEyLjQ0MiAwIDAgMS0uNDE2LS41MjVjLS4xMzUtLjE4LS4yNjctLjM2NC0uMzk2LS41NTFsLS4xMjMtLjE4NGMtLjE2NC0uMjQtLjMyNC0uNDgyLS40NzktLjcyOGExOC42IDE4LjYgMCAwIDEtLjMzOS0uNTM2Yy0uMDcxLS4xMTMtLjEzOS0uMjI3LS4yMDctLjMzOWwtLjAyOC0uMDQ2Yy0uMDY1LS4xMS0uMTI5LS4yMTgtLjE5MS0uMzI3YTMuMTcgMy4xNyAwIDAgMS0uMTAyLS4xNzljLS4wMzMtLjA2Mi0uMDcxLS4xMjUtLjEwNi0uMTg4bC0uMDU3LS4wOTktLjAzNS0uMDY0Yy0uMDY3LS4xMi0uMTMzLS4yNDEtLjE5Ny0uMzYzLS4wMy0uMDU0LS4wNTktLjEwOC0uMDktLjE2bC0uMDg5LS4xNzMtLjA5LS4xNzFjLS4yMjUtLjQ1LS40MzgtLjkwNi0uNjM4LTEuMzY4bC0uMDcxLS4xNjljLS4wNDYtLjExMy0uMDg5LS4yMjUtLjEzNS0uMzM2LS4wMjItLjA1NC0uMDQ0LS4xMDctLjA2My0uMTYxYTE2LjczMSAxNi43MzEgMCAwIDEtLjc3Ni0yLjYzOWMtLjAxMS0uMDU1LS4wMjItLjExLS4wMzEtLjE2M2ExMS41NCAxMS41NCAwIDAgMS0uMTI3LS44MDZjLS4wMDgtLjA1My0uMDE0LS4xMDYtLjAyLS4xNTlsLS4wMTctLjE2MmExMS4zMzcgMTEuMzM3IDAgMCAxLS4wNDktLjYzOGMwLS4wNTQtLjAwNS0uMTA4LS4wMDctLjE2YTguNDM2IDguNDM2IDAgMCAxLS4wMDgtLjMxOGMtLjA1Ni00LjI3MyAyLjEwNi04LjM4MSA2LjcyOS0xMy4wMDIgOC4yMzUtOC4yMjcgMTMuMDI5LTIwLjI2NiAxMy4wMjktMjAuMjY2cy4xMjktLjUwNS4zOTctMS4yMzJjLjAzNy0uMTAxLjA3Ni0uMjA1LjEyLS4zMTQuMTU2LS40MDcuMzMyLS44MDcuNTI3LTEuMTk3bC4wMzktLjA3NWMuMTY2LS4zMzIuMzQ4LS42NTYuNTQ0LS45NzEuMDQ2LS4wNzMuMDktLjE0NS4xNDEtLjIxOC4xNDctLjIxNy4zMDItLjQyOS40NjUtLjYzNC4wODktLjExMS4xODYtLjIyMS4yODMtLjMyOC4wMzktLjA0Mi4wNzctLjA4NC4xMTgtLjEyNC40NzctLjQ5MyAxLjAyMi0uODk1IDEuNjM5LTEuMTA5bC4wNzgtLjAyNmMuMDUyLS4wMTcuMTA0LS4wMzMuMTU3LS4wNDguMDYxLS4wMTYuMTIyLS4wMy4xODUtLjA0M2wuMDI5LS4wMDZjLjEzLS4wMjYuMjYyLS4wNDMuMzk1LS4wNTJoLjAxMWMuMDY5IDAgLjEzOS0uMDA3LjIxLS4wMDcuMDg5IDAgLjE3MiAwIC4yNTkuMDA5LjA5LjAwOC4xNzkuMDE4LjI2OS4wMzIuNzQyLjExOCAxLjQ0OC41NiAyLjA1NiAxLjI0Mi4yMzEuMjYuNDM5LjU0LjYyMS44MzYuMTIuMTkyLjIzMy4zOTUuMzQuNjA5LjA0My4wODkuMDg0LjE3MS4xMjQuMjU5YTcuOCA3LjggMCAwIDEgLjI4LjY5MWMuMTk1LjU1LjM0MiAxLjExNi40MzkgMS42OTIuMDg0LjUwNS4xMzQgMS4wMTUuMTUgMS41MjYuMDA4LjI3My4wMDguNTUgMCAuODI5YTExLjkzNiAxMS45MzYgMCAwIDEtLjc4NyAzLjc5MmMtLjA0Mi4xMTEtLjA4OS4yMjMtLjEzNC4zMzVhOS4yNjQgOS4yNjQgMCAwIDEtLjMwMi42NjVjLS4wODEuMTY1LS4xNjYuMzMxLS4yNTguNDk2LS4wNi4xMS0uMTIzLjIyLS4xODYuMzMtLjE2MS4yNzQtLjMzNS41NDYtLjUyMi44MTdsLS4xMTMuMTYyYTEzLjYyOCAxMy42MjggMCAwIDEtMS40NzIgMS43MjggMTUuNDI1IDE1LjQyNSAwIDAgMS0xLjY5OSAxLjQ3Yy0uNjAyLjQ0Ni0xLjE2Ny45NC0xLjY4OSAxLjQ3Ny0xLjUwMyAxLjU3Ny0xLjg1MyAyLjk2OS0xLjUxNSA0LjAyNC4wNTQuMTY2LjEyNS4zMjcuMjExLjQ3OS4xMDEuMTc0LjIyMS4zMzQuMzU3LjQ4bC4wNTMuMDU1LjA1NC4wNTRjLjA1NC4wNTIuMTExLjEwMy4xNzIuMTUzbC4wNi4wNDhjLjE0NS4xMTIuMjk5LjIxMi40Ni4zLjA0Ny4wMjUuMDg5LjA1LjE0Mi4wNzQuMTc0LjA4NS4zNTMuMTU4LjUzNy4yMTcuMDUxLjAxNy4xMDIuMDMyLjE1NC4wNDhsLjA2NS4wMTcuMDkuMDI0LjA3Ny4wMTkuMDg0LjAxOC4wODMuMDE3LjA3OS4wMTNjLjA1OC4wMS4xMTguMDIuMTc4LjAyN2wuMDU3LjAwOS4xMDQuMDEuMDY0LjAwNy4xMDUuMDA3aC4wNjJsLjExLjAwNmguMzQ2bC4wOTktLjAwNi4xMTQtLjAwNy4xMzktLjAxMy4xMy0uMDE1Yy4wMyAwIC4wNi0uMDA4LjA5LS4wMTQuNC0uMDU4Ljc5Mi0uMTY0IDEuMTY3LS4zMTZsLjE1OS0uMDY3YTQuODE5IDQuODE5IDAgMCAwIC43NzItLjQyMWMuMjI5LS4xNS40NDUtLjMxOC42NDctLjUwMy4wNDgtLjA0My4wOTUtLjA4OS4xNDEtLjEzMy4wMjMtLjAyMi4wNDUtLjA0My4wNjctLjA2Ny4wNDQtLjA0NS4wODktLjA4OS4xMzMtLjEzOC4zMi0uMzUyLjU5Ny0uNzQuODI1LTEuMTU3YTIyOC45MjUgMjI4LjkyNSAwIDAgMSA2LjE1MS0xMC41MTRsLjI5NC0uNDcxLjI5Ny0uNDcxYy4xNDgtLjIzOS4yOTgtLjQ3NC40NDctLjcwOGwuMTUtLjIzNGMuNDk4LS43OCAxLjAwNC0xLjU1NSAxLjUxOS0yLjMyNGwuMzA1LS40NTZjLjYxMi0uOTA3IDEuMjIyLTEuNzg5IDEuODI3LTIuNjI3bC4zMDEtLjQxNWE1Ni4yMjQgNTYuMjI0IDAgMCAxIDIuMDU0LTIuNjYxbC4yODItLjMzOGMuMDQ3LS4wNTYuMDktLjExMi4xNDEtLjE2Ni4wOTMtLjExLjE4Ni0uMjE3LjI3Ny0uMzIxLjA0Ni0uMDUzLjA4OS0uMTA1LjEzOC0uMTU3bC4yNjgtLjMwMi4xMzQtLjE0N2MuMTM1LS4xNDUuMjY3LS4yODQuMzk3LS40MTcuMDktLjA5LjE3My0uMTc5LjI1OS0uMjYzYTEwLjUgMTAuNSAwIDAgMSAxLjY2OS0xLjM4NmwuMTQtLjA5Yy4xMzQtLjA5LjI3My0uMTc0LjQxNS0uMjUgMi4zNjQtMS4zNDIgNC4zMjEtMS40NDEgNS40NDgtLjMxNC42ODIuNjgyIDEuMDYgMS44MTMgMS4wMzkgMy4zODcgMCAuMDY5IDAgLjEzOS0uMDA1LjIxMXYuMDc3YzAgLjA3Mi0uMDA2LjE0NC0uMDEyLjIxNyAwIC4wOS0uMDEuMTc5LS4wMTkuMjY5LS4wMDkuMDg5LS4wMTQuMTU3LS4wMjMuMjM3IDAgLjAyMi0uMDA0LjA0NS0uMDA4LjA2OS0uMDA2LjA2OS0uMDE1LjE0LS4wMjUuMjExIDAgLjAyMSAwIC4wNDMtLjAwOC4wNjVhNS4zNTQgNS4zNTQgMCAwIDEtLjA0MS4yODNjLS4wMTEuMDktLjAyNi4xNzQtLjA0Mi4yNjJsLS4wMjYuMTQ5YTQuMDA3IDQuMDA3IDAgMCAxLS4xLjQyIDYuMTYgNi4xNiAwIDAgMS0uMjgzLjc1OCAxMC45OSAxMC45OSAwIDAgMS0uNTE0Ljk4N2MtLjEwNC4xNzgtLjIxMS4zNTMtLjMyMi41MjYtLjExNC4xNzktLjIzNC4zNi0uMzU4LjU0My0uMzE2LjQ1Mi0uNjQ0Ljg5NS0uOTg1IDEuMzI4bC0uMTU2LjE5N2E1MC41NiA1MC41NiAwIDAgMS0xLjcyMiAyLjAzNWwtLjE4Ny4yMWMtLjI1Mi4yODEtLjUwOC41NjQtLjc3Ljg0OGwtLjE5Ny4yMTRjLS4xMzEuMTQzLS4yNjguMjg2LS40LjQzLS4xMzEuMTQzLS4yNjguMjg4LS40MDYuNDMzbC0uNDExLjQzMy0uNDE3LjQzNi0uNDIuNDM2Yy0uMjgyLjI5Mi0uNTY1LjU4NC0uODUuODc2LTQuMDU1IDQuMTU5LTguMzI3IDguMzA0LTkuNzczIDEwLjg4OGE1LjM2NSA1LjM2NSAwIDAgMC0uMjYyLjUxOWMtLjIwNi40Ny0uMjkyLjg3Mi0uMjMzIDEuMTk3YS45MTQuOTE0IDAgMCAwIC4xMTEuMzAzYy4wODEuMTQxLjE4LjI3MS4yOTUuMzg3LjA1My4wNTIuMTA5LjEuMTY4LjE0NC4yOTguMjEyLjY1Ny4zMjEgMS4wMjMuMzExaC4xMTRsLjExNy0uMDA5LjExNy0uMDEzLjA5Ny0uMDE0Yy4wMTMtLjAwMi4wMjctLjAwNC4wNC0uMDA4bC4wODktLjAxNy4wMjMtLjAwNS4wOTktLjAyMS4wMzUtLjAwOS4xMDQtLjAyOGMuMDM1LS4wMS4wODMtLjAyMy4xMjUtLjAzNy4xNzYtLjA1My4zNDgtLjExNi41MTctLjE4OC4wODktLjAzNi4xNzYtLjA3NS4yNjItLjExNy4wNDUtLjAyLjA5LS4wNDEuMTMyLS4wNjNsLjEzNC0uMDY2Yy4zMi0uMTY2LjYzMi0uMzQ3LjkzNi0uNTQxbC4xMzMtLjA5Yy4wNDUtLjAyOC4wOS0uMDU3LjEzMy0uMDg5bC4xMzMtLjA4OS4wNzEtLjA0OS4xOTItLjEzNWMuMTc5LS4xMjMuMzQ2LS4yNS41MTUtLjM3OWwuMDE1LS4wMTIuMjY5LS4yMDhjLjM2Ny0uMjkuNzE1LS41ODIgMS4wMzEtLjg1N2wuMjEtLjE4NC4wMTktLjAxOC4xMS0uMDk3Yy4yNTgtLjIzMi40ODgtLjQ0OC42NzktLjYyNmwuMDc5LS4wNzdjLjA2OS0uMDY1LjEzMi0uMTI2LjE4OS0uMTc4bC4xMTItLjExMS4wNC0uMDM5LjAxMS0uMDExLjExNy0uMTE3LjA3NC0uMDc3LjAwOS0uMDA3LjAzNS0uMDMyLjA0NC0uMDQuMDE0LS4wMTMuMDM3LS4wMzQuMjA0LS4xNzkuMTE0LS4xMDJjLjA2MS0uMDUzLjEyLS4xMDcuMTc5LS4xNjJsLjEzNi0uMTIxYy4wMjUtLjAyLjA0OS0uMDQyLjA3NC0uMDY0bC4xNDMtLjEyNS4yMS0uMTg1LjExMi0uMDk3Yy40MzUtLjM3OC45NjQtLjgzNSAxLjU3Mi0xLjM1bC4yNDktLjIxMS40MTEtLjM0NS40MjEtLjM1MWMuNTUtLjQ1NyAxLjE0Mi0uOTQyIDEuNzY4LTEuNDQ1bC40MTEtLjMzYy4zNS0uMjc5LjcwOS0uNTYzIDEuMDczLS44NDkuMTQ3LS4xMTUuMjk2LS4yMy40NDgtLjM0NGExMDAuNzg2IDEwMC43ODYgMCAwIDEgMy43NjItMi43ODhsLjM4NC0uMjY4Yy4yNjktLjE4NS41MzctLjM3MS44MDUtLjU1MmwuMjQzLS4xNjRjLjQ3OS0uMzI1Ljk2NS0uNjQyIDEuNDU1LS45NTFsLjI0My0uMTUzLjI0MS0uMTVjLjI0Mi0uMTUuNDgyLS4yOTcuNzIxLS40NGwuMjM5LS4xNDMuNDc4LS4yNzguNDY5LS4yNjkuMDk1LS4wNTIuMzcxLS4yMDRjLjE1NS0uMDg0LjMwOS0uMTY1LjQ2My0uMjQ0bC4yMjktLjExOC4yMjMtLjExMmMuMDc4LS4wMzcuMTU1LS4wNzYuMjMxLS4xMTNhMjEuNDQ2IDIxLjQ0NiAwIDAgMSAxLjk1NC0uODQ1bC40MS0uMTQ0Yy4xMjMtLjA0MS4yNDMtLjA4LjM1OC0uMTE1bC4wNC0uMDEyYy4wNjItLjAyLjEyNC0uMDM4LjE4NS0uMDU0bC4wMTgtLjAwNWMuMTI4LS4wMzcuMjU1LS4wNjkuMzgtLjA5OWguMDA5YTguMTU2IDguMTU2IDAgMCAxIDEuMDc3LS4xODNjLjE2Ny0uMDE3LjMzNC0uMDI2LjUwMi0uMDI1aC4wODRjLjExMiAwIC4yMi4wMDcuMzI3LjAxOC4wNDkgMCAuMDk4LjAxLjE0Ni4wMTZoLjAyYy4wNDguMDA2LjA5Ni4wMTMuMTQ0LjAyNC4wNDcuMDA5LjA5NS4wMTcuMTQxLjAyOGguMDE1Yy4wNDcuMDEuMDg5LjAyMi4xMzguMDM2LjI1NC4wNzEuNDk2LjE4MS43MTguMzI1LjEwOS4wNzEuMjExLjE1MS4zMDUuMjRsLjAyNy4wMjZhLjgwNS44MDUgMCAwIDEgLjA1MS4wNWwuMDQ5LjA1M2MuNDAyLjQyMS43MzQuOTA0Ljk4NCAxLjQzbC4wMzguMDlhMy4zMDkgMy4zMDkgMCAwIDEgLjA0MiAyLjU1MyA0LjY3NiA0LjY3NiAwIDAgMS0uMzM5LjcxNSA4LjE0MSA4LjE0MSAwIDAgMS0xLjA5OSAxLjQ1MmwtLjA4OS4wOTVjLS4xMzMuMTQtLjI3MS4yOC0uNDE2LjQyLS4wNjQuMDYzLS4xMzEuMTI1LS4xOTguMTg4bC0uMjA1LjE4OS0uMTA3LjA5NWEyMi42ODIgMjIuNjgyIDAgMCAxLTEuMjg1IDEuMDU3Yy0uNTg2LjQ0OC0xLjE4My44OC0xLjc5MSAxLjI5N2E1OS41NiA1OS41NiAwIDAgMS0xLjExLjc0MyA5OS42NyA5OS42NyAwIDAgMS0yLjc4NiAxLjc2M2MtMS45NjggMS4yMS00LjE0OSAyLjUwNC02LjQ3NCAzLjkxMWwtLjYwMi4zNjVjLS42NTkuNDAyLTEuMjgxLjc4Ni0xLjg2NyAxLjE1MmwtLjI5NS4xODUtLjU1OC4zNThjLS4zNy4yMzctLjczOS40NzYtMS4xMDguNzE1bC0uMjk3LjE5NmMtLjE0NS4wOTQtLjI4OS4xOS0uNDMzLjI4NmwtLjE0MS4wOS0uNDMyLjI5MS0uMjI5LjE1Ny0uMjY4LjE4Ni0uMjQ5LjE3M2MtLjQxNy4yOTUtLjgwNS41NzYtMS4xNjIuODQzbC0uMTM0LjEwMmMtLjIxLjE1OS0uNDE4LjMyMS0uNjIzLjQ4Ni0uMzA5LjI0OS0uNTkxLjQ4Ny0uODQ0LjcxNmwtLjEyNC4xMTNjLS4wNzEuMDY1LS4xNDEuMTMtLjIwOC4xOTQtLjA0Ni4wNDUtLjA4OS4wOS0uMTM3LjEzM2wtLjA2NC4wNjRjLS4xNDMuMTQ0LS4yODMuMjkxLS40MTguNDQybC0uMDY2LjA3NmMtLjE0Ny4xNy0uMjc1LjMzMy0uMzg3LjQ5MmwtLjA1LjA3MWMtLjA4OC4xMjgtLjE2OS4yNi0uMjQyLjM5Ni0uMDE5LjAzNC0uMDM2LjA2OC0uMDUzLjEwMmwtLjA0OS4xMDItLjAzMy4wNzQtLjAyMS4wNS0uMDE3LjA0NS0uMDIzLjA2MWEyLjU1IDIuNTUgMCAwIDAtLjEzLjUyM2wtLjAwOC4wNjItLjAwNi4wNTh2LjMxNWMwIC4wMjYgMCAuMDUyLjAwNy4wOGwuMDA1LjA0OGMwIC4wMjYuMDA2LjA1MS4wMS4wNzkuMDA0LjAyNi4wMTEuMDczLjAxOS4xMXYuMDA1Yy4wMDcuMDM1LjAxNC4wNjkuMDIzLjEwNHMuMDE4LjA3NS4wMjkuMTExYy4wMTkuMDcxLjA0My4xNDEuMDY4LjIxMS4wMTYuMDQyLjAzMS4wODMuMDQ4LjEyNCAwIC4wMDguMDA2LjAxNy4wMS4wMjVsLjAzNi4wODEuMDUuMTExYy4wNTQuMTE1LjExMy4yMjcuMTc3LjMzNmwuMDY2LjExNC4wNjguMTE0YS40MjYuNDI2IDAgMCAwIC4wNDEuMDU0bC4wMjIuMDIzLjAyNS4wMjMuMDI2LjAyYS40ODcuNDg3IDAgMCAwIC4xOTMuMDgzYy41NzcuMTMgMS43NjMtLjM0NyAzLjMzOS0xLjE3OS4wODktLjA0OC4xODctLjA5OC4yODItLjE1bC40OC0uMjYyLjIzNC0uMTNjLjE2Ny0uMDg5LjMzNy0uMTkuNTExLS4yODlsLjMxNy0uMTc5YzIuMDgzLTEuMTk5IDQuNTcxLTIuNzM5IDcuMTQzLTQuMjQzLjI0MS0uMTQxLjQ4My0uMjgyLjcyNS0uNDIxbC40ODYtLjMxMWMuNTY0LS4zMjMgMS4xMzEtLjY0MiAxLjctLjk1N2E4MC4xMjEgODAuMTIxIDAgMCAxIDIuMTY4LTEuMTVsLjQ3Ni0uMjQxYy4zMTYtLjE1Ni42MjktLjMwOC45MzgtLjQ1NmE0MC44OTkgNDAuODk5IDAgMCAxIDEuODE1LS44MDlsLjMzNS0uMTM2LjA0LS4wMTZjMS43NzUtLjcwMyAzLjM4NC0xLjEzNyA0LjY4Ni0xLjEzNy4yODEtLjAwMy41NjMuMDIxLjg0LjA2OWguMDA5Yy4wODkuMDE2LjE3LjAzNC4yNTMuMDU0aC4wMTVjLjIxMy4wNTQuNDIuMTMxLjYxNi4yMy4yNzUuMTQyLjUyMi4zMzEuNzMxLjU1OS4wOTYuMTA2LjE4MS4yMjEuMjU2LjM0My4xNC4yMTUuMjUuNDQ4LjMyOS42OTIuMDMyLjA5NS4wNi4xODguMDg5LjI4N2EzLjkzIDMuOTMgMCAwIDEtLjA2IDIuMzA1eiIvPjxwYXRoIGZpbGwtcnVsZT0iZXZlbm9kZCIgZmlsbD0iI2ZmZDIxZSIgZD0iTTIwMy4yMSAxMjMuNjg1di0uNDkxYzAtNDEuODU0LTMzLjkxOC03NS43ODMtNzUuNzc1LTc1Ljc4My00MS44NTYgMC03NS43ODcgMzMuOTMxLTc1Ljc4NyA3NS43ODN2LjE2NGE3LjEzIDcuMTMgMCAwIDAgMCAuMzI3Yy4wMDUuMTYzLjAwNy4zMjYuMDA1LjQ4OWwuMDA1LjM2LjAwMy4xMjljMCAuMDYuMDAyLjExOS4wMDQuMTc5LjAwMy4wOTUuMDA1LjE5MS4wMDUuMjg2bC4wMTEuMzg5LjAxNi40NTcuMDA1LjE1LjAyLjQ3M3YuMDIzYy4wMDguMTg1LjAxOC4zNjkuMDI3LjU1M2wuMDAxLjAxNGMuMDEuMTg4LjAyLjM3Ny4wMzIuNTY2LjAxLjE3NC4wMi4zNDguMDMzLjUyMmwuMDAyLjAzMWMuMDA5LjE0OS4wMTkuMjk5LjAzLjQ0OGwuMDAzLjA0LjAzMy40MzIuMDAzLjAyOGMuMDA2LjA4NC4wMTIuMTY4LjAyLjI0OS4wNi43MjEuMTMgMS40NDIuMjEgMi4xNjFsLjAwNC4wNDUuMDYxLjUyOS4wNjguNTU1LjA1LjM3Ny4wMjMuMTc3Yy4wNTMuNDA4LjExMS44MTUuMTczIDEuMjIxbC4wMDQuMDI3LjA1OS4zODRjLjI4NiAxLjgyOS42NCAzLjY0NyAxLjA2IDUuNDVsLjAwNS4wMjIuMDMyLjEzNS4wOTEuMzg1LjA1Ni0uMDY3YzIuMi0yLjYzIDUuMzU2LTQuMDggOC44ODctNC4wOCAyLjgzIDAgNS43MzMuOTM2IDguNjQzIDIuNzgxIDEuOTMgMS4yMjYgNC4wNjQgMy4zOTcgNi4yNiA2LjEyOCAyLjAzMi0yLjgyMiA0Ljg4LTQuNjk4IDguMTM4LTUuMjEuNjIxLS4wOTggMS4yNS0uMTQ3IDEuODc4LS4xNDggNy40MzYgMCAxMS45MTUgNi40NTMgMTMuNjA3IDEyLjI1OC44MzYgMS45NjEgNC44NjUgMTAuODkzIDEwLjk0MSAxNi45MzUgOS4yMzYgOS4yMjcgMTEuNTQ3IDE4Ljc0OCA2Ljk3NiAyOC45NDNoLjAxNmMuMzExLjAzNS42MjQuMDY3LjkzOS4wOTYuMTg3LjAxOC4zNzMuMDM2LjU2MS4wNTJsLjA2Ni4wMDYuNDEzLjAzNS4zOC4wM2MuMzYyLjAyOC43MjUuMDU0IDEuMDg5LjA3N2wuMjg5LjAxNy4yMjkuMDE0LjE0Mi4wMDguNDQ3LjAyMy4xMjIuMDA1LjQ2OS4wMjEuNTIyLjAyLjQxOS4wMTIuMDcuMDAyYy4wODkuMDA0LjE3OC4wMDcuMjY3LjAwN2wuMDk2LjAwM2MuNTkuMDE0IDEuMTc5LjAyMSAxLjc2OS4wMmguNjI2bC40NDctLjAwNWMuMTEtLjAwNS4yMTktLjAwNS4zMy0uMDA1aC4xNzRsLjE1MS0uMDA0Yy4wNTktLjAwMi4xMTgtLjAwNC4xNzgtLjAwNGguMTc5bC4zNTEtLjAwOS41MjgtLjAxOC41ODEtLjAyNmMuMTY4LS4wMDYuMzM0LS4wMTUuNS0uMDIzbC4xNzktLjAxMS4yNjYtLjAxNC4xNTYtLjAwOS4xMTgtLjAwOC41MzctLjAzNS41MzYtLjAzOS40ODctLjAzOS4zNDItLjAyOS4zNzYtLjAzNGE2Mi4zNDcgNjIuMzQ3IDAgMCAwIDEuODgtLjE5N2wuNDI3LS4wNTFjLTQuNDk5LTEwLjE1Mi0yLjE3LTE5LjYzMiA3LjAyNy0yOC44MjIgNi4wNjMtNi4wNTggMTAuMDkyLTE0Ljk5IDEwLjkzMi0xNi45NTIgMS42OTMtNS44MDQgNi4xNjktMTIuMjU3IDEzLjYwNy0xMi4yNTcuNjI5IDAgMS4yNTguMDUgMS44NzkuMTQ4IDMuMjU1LjUxMiA2LjEwMyAyLjM4OCA4LjEzOCA1LjIxIDIuMTk3LTIuNzMgNC4zMy00LjkwMyA2LjI2MS02LjEyOSAyLjkwOS0xLjg0NCA1LjgxNS0yLjc4IDguNjQyLTIuNzggMy4xMTYgMCA1Ljk0IDEuMTMgOC4wNzMgMy4yMDMuMDM5LS4xNjkuMDc3LS4zMzguMTE0LS41MDhsLjEwOS0uNTA2Yy4wMzktLjE4NS4wNzgtLjM3LjExNS0uNTU1LjA2Ni0uMzI3LjEzMi0uNjU0LjE5NS0uOTg0LjA2Ni0uMzQyLjEyOS0uNjg2LjE4OS0xLjAzbC4wMzEtLjE4NmMuMDE5LS4xMS4wMzctLjIyLjA1OC0uMzMxLjAzNC0uMTcyLjA2Mi0uMzQ0LjA5LS41MThsLjAxMS0uMDY2LjA3MS0uNDUzLjA3LS40NTl2LS4wMDRjLjA1MS0uMzM5LjA5OS0uNjc4LjE0NC0xLjAxN2wuMDExLS4wODQuMDYzLS40NzguMDUxLS40MDguMDktLjgwNC4wMzUtLjMyMy4wMDktLjA4OGMuMDE5LS4xNzQuMDM3LS4zNDguMDUzLS41MjJ2LS4wMTRjLjAxMy0uMTM4LjAyNy0uMjc3LjAzOS0uNDE2LjA3MS0uNzg4LjEzMS0xLjU4LjE3OS0yLjM3NS4wMDktLjEzLjAxNi0uMjYxLjAyNC0uMzkydi0uMDA2bC4wMjYtLjQ5MS4wMDYtLjExYy4wMTYtLjMzMi4wMy0uNjY0LjA0MS0uOTk2di0uMDEybC4wMDUtLjEzYy4wMDUtLjEwOS4wMDktLjIxOS4wMDktLjMyOWwuMDAyLS4wNDRjLjAwNC0uMTAzLjAwOC0uMjA5LjAwOC0uMzE0bC4wMDMtLjA5Yy4wMDMtLjEwNS4wMDYtLjIwOS4wMDYtLjMxNGwuMDAyLS4wODljLjAwMy0uMTMzLjAwNi0uMjY3LjAwNi0uNHptLTk0LjU3MiA3NS43MDZjNi4wMDItOC44MDEgNS41NzYtMTUuNDA3LTIuNjU4LTIzLjYzNy04LjIzNi04LjIzMS0xMy4wMjktMjAuMjY3LTEzLjAyOS0yMC4yNjdzLTEuNzg5LTYuOTkxLTUuODY5LTYuMzQ5LTcuMDczIDExLjA4OSAxLjQ3IDE3LjQ4NGM4LjU0MiA2LjM5NS0xLjcgMTAuNzMxLTQuOTg4IDQuNzMtMy4yODgtNi4wMDItMTIuMjY1LTIxLjQyOS0xNi45MTktMjQuMzhzLTcuOTI3LTEuMjk3LTYuODMgNC43ODVjLjU0NSAzLjAxOSA1LjYxMyA4LjE3MiAxMC4zNDggMTIuOTg2IDQuODA0IDQuODg0IDkuMjY1IDkuNDIgOC4zMTEgMTEuMDI1LTEuODkzIDMuMTg3LTguNTYtMy43NDUtOC41Ni0zLjc0NXMtMjAuODc2LTE4Ljk5OC0yNS40Mi0xNC4wNDdjLTQuMTkgNC41NjMgMi4yNzEgOC40NDIgMTIuMjI3IDE0LjQyMS44NDYuNTA4IDEuNzE4IDEuMDMyIDIuNjExIDEuNTcyIDExLjM5MSA2Ljg5NiAxMi4yNzcgOC43MTUgMTAuNjYgMTEuMzI0LS41OTcuOTY0LTQuNDEtMS4zMjUtOS4xLTQuMTQtNy45OTUtNC44MDEtMTguNTM3LTExLjEzLTIwLjAyNi01LjQ2NS0xLjI4OCA0LjkwMyA2LjQ2OCA3LjkwNyAxMy41MDIgMTAuNjMyIDUuODYgMi4yNyAxMS4yMiA0LjM0NiAxMC40MzEgNy4xNjQtLjgxNyAyLjkyMi01LjI0Ni40ODUtMTAuMDg3LTIuMTc5LTUuNDM1LTIuOTkxLTExLjM5LTYuMjY3LTEzLjMzOS0yLjU3LTMuNjgzIDYuOTkgMjUuNDEgMTUuMjE5IDI1LjY1IDE1LjI4IDkuNCAyLjQzOCAzMy4yNzIgNy42MDQgNDEuNjE1LTQuNjI0em0zOC42NjUgMGMtNi4wMDItOC44MDEtNS41NzYtMTUuNDA3IDIuNjU5LTIzLjYzNyA4LjIzNS04LjIzMSAxMy4wMjgtMjAuMjY3IDEzLjAyOC0yMC4yNjdzMS43ODktNi45OTEgNS44NjktNi4zNDkgNy4wNzMgMTEuMDg5LTEuNDY5IDE3LjQ4NGMtOC41NDMgNi4zOTUgMS42OTkgMTAuNzMxIDQuOTg3IDQuNzMgMy4yODktNi4wMDIgMTIuMjYtMjEuNDI5IDE2LjkxNC0yNC4zOHM3LjkyOS0xLjI5NyA2LjgzMSA0Ljc4NWMtLjU0NCAzLjAxOS01LjYxMyA4LjE3Mi0xMC4zNDggMTIuOTg3LTQuODA0IDQuODg0LTkuMjY1IDkuNDE5LTguMzEyIDExLjAyNCAxLjg5MyAzLjE4NyA4LjU2NS0zLjc0OSA4LjU2NS0zLjc0OXMyMC44NzUtMTguOTk3IDI1LjQyMS0xNC4wNDZjNC4xODkgNC41NjItMi4yNzIgOC40NDItMTIuMjI5IDE0LjQyMS0uODcxLjUyMy0xLjc0MSAxLjA0Ny0yLjYxIDEuNTcyLTExLjM5MSA2Ljg5Ni0xMi4yNzcgOC43MTUtMTAuNjYxIDExLjMyMy41OTguOTY1IDQuNDExLTEuMzI1IDkuMS00LjE0IDcuOTk2LTQuOCAxOC41MzgtMTEuMTMgMjAuMDI3LTUuNDY0IDEuMjg5IDQuOTAzLTYuNDY4IDcuOTA3LTEzLjUwMiAxMC42MzItNS44NiAyLjI3LTExLjIyIDQuMzQ2LTEwLjQzMiA3LjE2NC44MTYgMi45MjEgNS4yNDQuNDg0IDEwLjA4NC0yLjE4IDUuNDM1LTIuOTkxIDExLjM5MS02LjI2OSAxMy4zMzktMi41NjkgMy42ODQgNi45OTQtMjUuNDE0IDE1LjIxNS0yNS42NDkgMTUuMjc1LTkuNCAyLjQ0Ni0zMy4yNzIgNy42MTItNDEuNjEyLTQuNjE2eiIgY2xpcC1ydWxlPSJldmVub2RkIi8+PHBhdGggZmlsbC1ydWxlPSJldmVub2RkIiBmaWxsPSIjMzIzNDNkIiBkPSJNMTUyLjA0NyAxMDIuNTY3YzEuMTgyLjQxOCAyLjA2MSAxLjY5IDIuODk3IDIuOTAxIDEuMTMgMS42MzYgMi4xODIgMy4xNTkgMy43OTYgMi4zMDFhMTAuOTA5IDEwLjkwOSAwIDAgMCA0LjI0Ny0xNS4yMTQgMTAuOTEyIDEwLjkxMiAwIDAgMC03Ljc0Mi01LjE5OCAxMC45MDQgMTAuOTA0IDAgMCAwLTExLjY4OSA2LjU4OSAxMC45MDkgMTAuOTA5IDAgMCAwIC40MzYgOS4zMTRjLjc0OCAxLjQwNyAyLjQwOC43NDMgNC4xNi4wNDIgMS4zNzMtLjU0OSAyLjgwNC0xLjEyMSAzLjg5NS0uNzM1em0tNTEuMzc1IDBjLTEuMTgyLjQxOC0yLjA2MSAxLjY5MS0yLjg5NyAyLjkwMS0xLjEzIDEuNjM3LTIuMTgzIDMuMTU5LTMuNzk2IDIuMzAxYTEwLjkwMyAxMC45MDMgMCAwIDEgOC4yNjMtMjAuMDY4IDEwLjkwOSAxMC45MDkgMCAwIDEgNy43MDcgOS4zNDggMTAuOTA2IDEwLjkwNiAwIDAgMS0xLjIyMSA2LjIxMWMtLjc0OSAxLjQwNy0yLjQwOS43NDMtNC4xNjEuMDQzLTEuMzc0LS41NS0yLjgwMy0xLjEyMi0zLjg5NS0uNzM2em00My40MjcgNDYuNzUxYzguMTQzLTYuNDE1IDExLjEzNC0xNi44ODkgMTEuMTM0LTIzLjM0MSAwLTUuMS0zLjQzMS0zLjQ5NS04LjkyNC0uNzc1bC0uMzEuMTUzYy01LjA0MiAyLjQ5Ny0xMS43NTQgNS44MjItMTkuMTIyIDUuODIyLTcuMzY5IDAtMTQuMDgxLTMuMzI1LTE5LjEyMi01LjgyMy01LjY3MS0yLjgwOS05LjIyOC00LjU3MS05LjIyOC42MjQgMCA2LjY1NiAzLjE4MiAxNy41ODUgMTEuOTE2IDIzLjkzNGExOC45NjggMTguOTY4IDAgMCAxIDExLjU3NS05Ljc4NmMuODcyLS4yNiAxLjc3IDEuMjQxIDIuNjg5IDIuNzc4Ljg4NyAxLjQ4MiAxLjc5NCAyLjk5OCAyLjcxNiAyLjk5OC45ODMgMCAxLjk0OC0xLjQ5NCAyLjg5MS0yLjk1Mi45ODUtMS41MjUgMS45NDYtMy4wMSAyLjg3NS0yLjcxM2ExOC45NjcgMTguOTY3IDAgMCAxIDEwLjkxIDkuMDgxeiIgY2xpcC1ydWxlPSJldmVub2RkIi8+PHBhdGggZmlsbD0iI2ZmMzIzZCIgZD0iTTE0NC4wOTcgMTQ5LjMxN2MtNC4yNDEgMy4zNDItOS44NzggNS41ODMtMTcuMjE5IDUuNTgzLTYuODk3IDAtMTIuMjkxLTEuOTc4LTE2LjQzNS00Ljk4OWExOC45NjYgMTguOTY2IDAgMCAxIDExLjU3NS05Ljc4NmMxLjcxMi0uNTExIDMuNTI3IDUuNzc2IDUuNDA1IDUuNzc2IDIuMDEgMCAzLjk0Ny02LjI0NiA1Ljc2Ni01LjY2NWExOC45NzQgMTguOTc0IDAgMCAxIDEwLjkwOCA5LjA4MXoiLz48cGF0aCBmaWxsLXJ1bGU9ImV2ZW5vZGQiIGZpbGw9IiNmZmFkMDMiIGQ9Ik04MS4yIDExMS42NGE3LjA3OCA3LjA3OCAwIDAgMS02LjY1LjY1NSA3LjA2MiA3LjA2MiAwIDAgMS0zLjgzNy0zLjgzNyA3LjA4MiA3LjA4MiAwIDAgMSAuNjU3LTYuNjUgNy4wODcgNy4wODcgMCAxIDEgOS44MyA5LjgzMnptMTAxLjQxMyAwYTcuMDggNy4wOCAwIDAgMS02LjY1MS42NTUgNy4wNjQgNy4wNjQgMCAwIDEtMy44MzctMy44MzcgNy4xMDIgNy4xMDIgMCAwIDEtLjUwNC0zLjQwNyA3LjEwMyA3LjEwMyAwIDAgMSAzLjQxMS01LjM4NSA3LjA4MyA3LjA4MyAwIDAgMSA4LjY1NiAxLjA3IDcuMDc5IDcuMDc5IDAgMCAxIDEuNTM2IDcuNzI0IDcuMDg5IDcuMDg5IDAgMCAxLTIuNjExIDMuMTh6IiBjbGlwLXJ1bGU9ImV2ZW5vZGQiLz48L3N2Zz4=;" parent="1" vertex="1">
          <mxGeometry x="1121" y="380" width="80" height="80" as="geometry" />
        </mxCell>
      </root>
    </mxGraphModel>
  </diagram>
</mxfile>
